<?xml version="1.0" standalone="no"?><!DOCTYPE svg PUBLIC "-//W3C//DTD SVG 1.1//EN" "http://www.w3.org/Graphics/SVG/1.1/DTD/svg11.dtd"><svg class="icon" width="48px" height="48.00px" viewBox="0 0 1024 1024" version="1.1" xmlns="http://www.w3.org/2000/svg"><path fill="#007bff" d="M67.22198 974.868687C67.22198 974.868687 64.491313 820.172283 67.22198 726.626263 69.952646 633.080242 100.05204 424.349737 274.090667 292.20202 448.129293 160.054303 738.800485 51.386182 936.070465 2.585859 959.074263-2.358303 956.757333 2.585859 956.757333 2.585859 956.757333 2.585859 956.033293 253.724444 894.696727 499.070707 847.013495 689.824323 691.510303 895.617293 522.333091 974.868687 362.402909 1049.796525 149.969455 1016.242424 149.969455 1016.242424 149.969455 1016.242424 286.647596 947.49996 398.211879 850.747475 509.776162 753.99499 605.204687 648.036848 667.141172 561.131313 729.077657 474.225778 791.262384 312.888889 791.262384 312.888889 791.262384 312.888889 665.072485 583.783434 356.838141 809.373737 275.042263 872.551434 81.454545 968.931556 67.22198 974.868687Z" /></svg>